<?xml version="1.0" standalone="no"?><!DOCTYPE svg PUBLIC "-//W3C//DTD SVG 1.1//EN" "http://www.w3.org/Graphics/SVG/1.1/DTD/svg11.dtd"><svg t="1488292582671" class="icon" style="" viewBox="0 0 1024 1024" version="1.1" xmlns="http://www.w3.org/2000/svg" p-id="2824" xmlns:xlink="http://www.w3.org/1999/xlink" width="128" height="128"><defs><style type="text/css"></style></defs><path d="M0 0h1024v1024H0z" fill="#ECF0F1" p-id="2825"></path><path d="M88.275862 865.103448v70.62069h847.448276V741.517241L670.896552 512 494.344828 706.206897l-105.931035-88.275863z" fill="#4FBA6F" p-id="2826"></path><path d="M0 0h1024v211.862069H0z" fill="#546A79" p-id="2827"></path><path d="M105.931034 105.931034m-52.965517 0a52.965517 52.965517 0 1 0 105.931035 0 52.965517 52.965517 0 1 0-105.931035 0Z" fill="#ED7161" p-id="2828"></path><path d="M264.827586 105.931034m-52.965517 0a52.965517 52.965517 0 1 0 105.931034 0 52.965517 52.965517 0 1 0-105.931034 0Z" fill="#F0C419" p-id="2829"></path><path d="M423.724138 105.931034m-52.965517 0a52.965517 52.965517 0 1 0 105.931034 0 52.965517 52.965517 0 1 0-105.931034 0Z" fill="#4FBA6F" p-id="2830"></path><path d="M88.275862 865.103448V300.137931h847.448276v441.37931L670.896552 512 494.344828 706.206897l-105.931035-88.275863z" fill="#FFFFFF" p-id="2831"></path><path d="M70.62069 282.482759v670.896551h882.75862V282.482759H70.62069z m847.448276 35.310344v399.748414L683.166897 490.478345a17.655172 17.655172 0 0 0-25.317518 0.776827l-172.932413 189.387035-83.738483-83.738483a17.655172 17.655172 0 0 0-24.152276-0.759172L105.931034 834.860138V317.793103h812.137932zM105.931034 918.068966v-36.157794l282.023725-248.302344L569.82069 815.492414a17.637517 17.637517 0 1 0 24.964413-24.964414l-84.868413-84.868414 161.756689-177.169655L918.068966 766.658207V918.068966H105.931034z" fill="#E6E6E6" p-id="2832"></path><path d="M257.218207 477.907862m-80.666483 0a80.666483 80.666483 0 1 0 161.332966 0 80.666483 80.666483 0 1 0-161.332966 0Z" fill="#F29C1F" p-id="2833"></path></svg>